<svg width="620" height="350" xmlns="http://www.w3.org/2000/svg" preserveAspectRatio="xMidYMid meet">
 <metadata>Created by potrace 1.15, written by Peter Selinger 2001-2017</metadata>

 <g>
  <title>background</title>
  <rect fill="none" id="canvas_background" height="402" width="582" y="-1" x="-1"/>
 </g>
 <g>
  <title>Layer 1</title>
  <path fill="#00007f" id="svg_2" d="m70.600001,122.499997c-24.5,6.8 -41.600001,29.5 -41.600001,55.500001c0,25.7 17.2,47.900001 42.200001,54.600001c6.9,1.8 21.7,1.8 29.7,-0.1c9.8,-2.4 19.2,-7.8 26.1,-15.2c3.3,-3.5 6,-6.8 6,-7.2c0,-0.9 -20.6,-16.1 -21.7,-16.1c-0.3,0 -2.8,2.1 -5.5,4.6c-2.6,2.5 -6.3,5.1 -8.1,5.9c-13.7,5.7 -28.8,-0.3 -34.800001,-13.8c-3.3,-7.4 -3.3,-19.2 0,-26.5c4.9,-11 15.8,-17.3 27.3,-15.8c6.4,0.9 9.9,2.7 15.7,8.1l4.6,4.3l11.4,-8.9l11.3,-8.9l-6.8,-6.8c-7.2,-7.2 -14.2,-11.3 -23.5,-13.7c-6.8,-1.8 -25.6,-1.8 -32.3,0z"/>
  <path fill="#00007f" id="svg_3" d="m415.000006,122.599997c-15,3.9 -30.3,16.1 -36.800001,29.2c-15.3,31 0.3,69.000001 32.7,79.300001c8.3,2.7 23.8,3.6 32.3,2c20.4,-3.9 37.900001,-19.7 44.100001,-39.600001c3,-9.8 2.9,-24.4 -0.2,-33.5c-6.4,-18.6 -21.6,-32.7 -40.600001,-37.500001c-7.5,-1.9 -24.1,-1.9 -31.5,0.1zm25,26.9c6.5,2.3 12.5,7.7 15.7,14.3c2.4,4.8 2.8,6.9 2.8,13.7c-0.1,16.3 -9.7,27.6 -24.9,29.2c-20.2,2.1 -35.400001,-18.3 -29.2,-39.100001c2.5,-8.3 9.1,-15.4 16.9,-18.3c4.6,-1.6 13.7,-1.6 18.7,0.2z"/>
  <path fill="#56aaff" id="svg_4" d="m183.500003,124.199997c-0.2,0.7 -0.5,2.2 -0.7,3.2c-0.2,1.3 -2,2.5 -5.5,3.7c-2.9,1 -6.3,2.5 -7.5,3.3c-1.9,1.4 -2.4,1.4 -5,-0.2l-2.8,-1.6l-6.8,6.7c-6.6,6.6 -6.6,6.7 -5.1,9.3c1.4,2.4 1.4,2.9 -0.7,7.2c-1.3,2.6 -2.6,6.1 -3,7.9c-0.5,2.6 -1.2,3.2 -4,3.8l-3.4,0.6l0,9.5l0,9.4l3.1,0.7c1.7,0.3 3.3,1.3 3.6,2.2c0.3,0.9 1.8,4.4 3.3,7.8c2.8,6.2 2.8,6.2 1,8.6l-1.9,2.4l6.8,6.7c3.8,3.6 7.3,6.6 7.7,6.6c0.4,0 1.5,-0.7 2.4,-1.5c1.6,-1.4 2.3,-1.3 8.1,1.5c3.5,1.6 7.2,3 8.2,3c1,0 1.7,0.8 1.7,1.9c0,4.7 0.7,5.1 10.5,5.1c9.8,0 10.5,-0.4 10.5,-5.1c0,-1 0.7,-1.9 1.5,-1.9c0.9,0 4.5,-1.4 8.2,-3c5.9,-2.7 6.8,-2.9 8.3,-1.5c0.9,0.8 2.1,1.5 2.6,1.5c1.2,0 13.4,-12.2 13.4,-13.4c0,-0.5 -0.7,-1.7 -1.6,-2.7c-1.5,-1.6 -1.4,-2.2 0.9,-7.1c1.3,-2.9 2.9,-6.5 3.5,-8c0.8,-1.8 2,-2.8 3.9,-3l2.8,-0.3l0.3,-9.7l0.3,-9.7l-3.6,-0.7c-2.3,-0.4 -3.5,-1.2 -3.5,-2.3c0,-0.9 -1.3,-4.4 -3,-7.9c-2.8,-6 -2.9,-6.4 -1.3,-8.8c1.6,-2.5 1.6,-2.6 -5.2,-9.4l-6.8,-6.9l-2.5,1.9c-2.2,1.8 -2.7,1.8 -5.1,0.5c-1.4,-0.9 -4.8,-2.4 -7.6,-3.4c-4.1,-1.5 -5.1,-2.4 -5.8,-5l-0.8,-3.1l-9.5,0c-6.7,0 -9.6,0.4 -9.9,1.2zm21.7,15.8c20.7,6.4 32.2,28.1 25.9,48.800001c-4.4,14.5 -15.8,24.7 -30.4,27.3c-20.3,3.7 -39.200001,-8.2 -45.200001,-28.4c-1.9,-6.5 -1.9,-12.4 0.1,-20c2.1,-8 3.7,-11 9.2,-16.9c10.9,-11.7 25.2,-15.5 40.400001,-10.8z"/>
  <path fill="#00007f" id="svg_5" d="m264.000004,177.499997l0,54.500001l32.8,0c35.300001,0 40.500001,-0.6 50.100001,-5.5c8.8,-4.4 15.1,-14.5 15.1,-24.1c0,-11.2 -4.7,-18.8 -14.9,-24.3l-6.1,-3.2l4.7,-3.3c2.7,-1.8 6.1,-5.4 7.8,-8.1c2.6,-4.2 3,-5.7 3,-12.4c0,-6.3 -0.5,-8.5 -2.6,-12.6c-3.2,-6.3 -9.2,-10.9 -17.5,-13.5c-6.1,-1.8 -9.3,-2 -39.500001,-2l-32.9,0l0,54.500001zm57.500001,-29.1c5.9,2.5 7.4,9.3 3.1,14.3c-2.4,2.8 -2.5,2.8 -16.5,3.1l-14.1,0.4l0,-9.6l0,-9.6l12,0c8.1,0 13.2,0.5 15.5,1.4zm6.8,42.400001c3.2,3 4.1,6.7 2.6,10.4c-2.1,5.1 -5.7,6.2 -22.1,6.6l-14.8,0.4l0,-10.2l0,-10.1l15.9,0.3c15.1,0.3 16.1,0.4 18.4,2.6z"/>
  <path fill="#00007f" id="svg_6" d="m506.000008,177.499997l0,54.500001l41.500001,0l41.500001,0l0,-13l0,-13l-26.5,0l-26.5,0l0,-41.500001l0,-41.500001l-15,0l-15,0l0,54.500001z"/>
 </g>
</svg>