<?xml version="1.0" encoding="UTF-8" standalone="no"?>
<!DOCTYPE svg PUBLIC "-//W3C//DTD SVG 1.1//EN" "http://www.w3.org/Graphics/SVG/1.1/DTD/svg11.dtd">
<svg version="1.1" xmlns="http://www.w3.org/2000/svg" xmlns:xlink="http://www.w3.org/1999/xlink" preserveAspectRatio="xMidYMid meet" viewBox="0 0 437 437" width="437" height="437"><defs><path d="M384.17 393.94L226.1 437.77L68.46 394.01L33.33 0L419.33 0L384.17 393.94Z" id="b2T6TRLPp"></path><path d="M384.11 32.22L226.33 32.22L226.33 404.27L354.06 368.86L384.11 32.22Z" id="b4kh37RKIX"></path><path d="M118.2 226.67L226.33 226.67L226.33 178.35L113.86 178.35L118.2 226.67Z" id="cZXEfTYEY"></path><path d="M226.17 80.54L105.16 80.54L109.55 128.86L226.33 128.86L226.33 80.54L226.17 80.54Z" id="a2iCKRYX"></path><path d="M226.33 303.85L226.12 303.9L172.3 289.37L168.86 250.83L142.71 250.83L120.35 250.83L127.12 326.71L226.11 354.19L226.33 354.12L226.33 303.85Z" id="a1SX20QD2o"></path><path d="M280.06 289.34L226.17 303.89L226.17 354.16L325.23 326.71L325.96 318.54L337.31 191.32L338.49 178.35L347.22 80.54L226.17 80.54L226.17 128.86L294.26 128.86L289.86 178.35L226.17 178.35L226.17 226.67L285.67 226.67L280.06 289.34Z" id="a13KGLtaU1"></path></defs><g><g><g><use xlink:href="#b2T6TRLPp" opacity="1" fill="#264de4" fill-opacity="1"></use><g><use xlink:href="#b2T6TRLPp" opacity="1" fill-opacity="0" stroke="#000000" stroke-width="1" stroke-opacity="0"></use></g></g><g><use xlink:href="#b4kh37RKIX" opacity="1" fill="#2965f1" fill-opacity="1"></use><g><use xlink:href="#b4kh37RKIX" opacity="1" fill-opacity="0" stroke="#000000" stroke-width="1" stroke-opacity="0"></use></g></g><g><use xlink:href="#cZXEfTYEY" opacity="1" fill="#ebebeb" fill-opacity="1"></use><g><use xlink:href="#cZXEfTYEY" opacity="1" fill-opacity="0" stroke="#000000" stroke-width="1" stroke-opacity="0"></use></g></g><g><use xlink:href="#a2iCKRYX" opacity="1" fill="#ebebeb" fill-opacity="1"></use><g><use xlink:href="#a2iCKRYX" opacity="1" fill-opacity="0" stroke="#000000" stroke-width="1" stroke-opacity="0"></use></g></g><g><use xlink:href="#a1SX20QD2o" opacity="1" fill="#ebebeb" fill-opacity="1"></use><g><use xlink:href="#a1SX20QD2o" opacity="1" fill-opacity="0" stroke="#000000" stroke-width="1" stroke-opacity="0"></use></g></g><g><use xlink:href="#a13KGLtaU1" opacity="1" fill="#ffffff" fill-opacity="1"></use><g><use xlink:href="#a13KGLtaU1" opacity="1" fill-opacity="0" stroke="#000000" stroke-width="1" stroke-opacity="0"></use></g></g></g></g></svg>