<?xml version="1.0" encoding="iso-8859-1"?>
<!-- Generator: Adobe Illustrator 19.0.0, SVG Export Plug-In . SVG Version: 6.00 Build 0)  -->
<svg version="1.1" id="Capa_1" xmlns="http://www.w3.org/2000/svg" xmlns:xlink="http://www.w3.org/1999/xlink" x="0px" y="0px"
	 viewBox="0 0 480 480" style="enable-background:new 0 0 480 480;" xml:space="preserve">
<path style="fill:#4BAD32;" d="M424,383.995h-48l-24-56h-32l-56-144h-48l-48,144h-32l-24,56H56l-56,96h480L424,383.995z"/>
<path style="fill:#FCD821;" d="M222.297,158.026c-11.717-2.668-22.684-7.936-32.09-15.414l9.969-12.516
	c7.517,5.976,16.281,10.187,25.645,12.32L222.297,158.026z M257.859,157.979l-3.555-15.594c9.359-2.154,18.115-6.383,25.621-12.375
	l9.992,12.5C280.525,150.003,269.569,155.289,257.859,157.979z M167.969,114.847c-5.253-10.808-7.978-22.67-7.969-34.688l16-0.031
	c-0.01,9.608,2.167,19.093,6.367,27.734L167.969,114.847z M312.102,114.698l-14.414-6.938c4.179-8.658,6.338-18.152,6.312-27.766
	l16.004-0.297l-0.012,0.633C319.992,92.236,317.294,103.985,312.102,114.698L312.102,114.698z M182.258,52.354l-14.43-6.922
	c5.213-10.815,12.771-20.333,22.125-27.859l10.023,12.469C192.484,36.069,186.431,43.692,182.258,52.354L182.258,52.354z
	 M297.578,52.01c-4.227-8.633-10.326-16.215-17.852-22.195l9.946-12.531c9.399,7.47,17.014,16.942,22.289,27.727L297.578,52.01z
	 M225.57,17.627l-3.594-15.594c11.704-2.67,23.855-2.705,35.574-0.102l-3.504,15.609C244.665,15.461,234.939,15.49,225.57,17.627
	L225.57,17.627z"/>
<path style="fill:#EC322C;" d="M240,98.331l24.72,13.664L260,83.051l20-20.496l-27.64-4.224L240,31.995l-12.36,26.336L200,62.555
	l20,20.496l-4.72,28.944L240,98.331z"/>
<path style="fill:#4C4B4B;" d="M80.001,248.585l13.501-8.592l56,88l-13.501,8.592L80.001,248.585z"/>
<path style="fill:#EC322C;" d="M101.656,338.339c-1.5-1.5-3.534-2.343-5.656-2.344H80v-16h24c3.03,0.001,5.801-1.711,7.156-4.422
	l8-16l-14.312-7.156l-5.789,11.578H80v-2.226c7.653-4.418,10.275-14.204,5.856-21.856c-4.418-7.653-14.204-10.275-21.856-5.856
	c-7.653,4.418-10.275,14.204-5.856,21.856c1.404,2.432,3.424,4.452,5.856,5.856v49.242l-7.762,40.984l15.523,3.875l8-41.938
	c0.158-0.634,0.238-1.284,0.238-1.938h12.688l32,21.656L136,362.339L101.656,338.339z"/>
<path style="fill:#85EF67;" d="M216,183.995l-48,144h-32l-24,56H56l-56,96h16l48-80h56l24-56h48l48-160.008L216,183.995z"/>
<g>
</g>
<g>
</g>
<g>
</g>
<g>
</g>
<g>
</g>
<g>
</g>
<g>
</g>
<g>
</g>
<g>
</g>
<g>
</g>
<g>
</g>
<g>
</g>
<g>
</g>
<g>
</g>
<g>
</g>
</svg>
