<?xml version="1.0" encoding="UTF-8"?>
<!DOCTYPE svg PUBLIC "-//W3C//DTD SVG 1.1//EN" "http://www.w3.org/Graphics/SVG/1.1/DTD/svg11.dtd">
<!-- Creator: CorelDRAW X6 -->
<svg xmlns="http://www.w3.org/2000/svg" xml:space="preserve" width="1.26389in" height="1.26389in" version="1.1" style="shape-rendering:geometricPrecision; text-rendering:geometricPrecision; image-rendering:optimizeQuality; fill-rule:evenodd; clip-rule:evenodd"
viewBox="0 0 1264 1264"
 xmlns:xlink="http://www.w3.org/1999/xlink">
 <defs>
  <style type="text/css">
   <![CDATA[
    .fil0 {fill:#282828;fill-rule:nonzero}
   ]]>
  </style>
 </defs>
 <g id="Layer_x0020_1">
  <metadata id="CorelCorpID_0Corel-Layer"/>
  <path class="fil0" d="M1252 569l-557 -557c-16,-16 -37,-24 -58,-24l-1 0c-21,0 -42,8 -58,24l-116 116 147 147c34,-12 73,-4 100,23 27,27 35,67 23,101l141 141c34,-12 74,-4 101,23 38,38 38,100 0,138 -38,38 -100,38 -138,0 -29,-29 -36,-71 -21,-106l-132 -132 0 347c9,5 18,11 26,18 38,38 38,100 0,138 -38,38 -100,38 -138,0 -38,-38 -38,-100 0,-138 9,-9 20,-17 32,-21l0 -350c-12,-5 -23,-12 -32,-21 -29,-29 -36,-71 -21,-107l-145 -145 -382 382c-16,16 -24,37 -24,58 0,21 8,42 24,58l557 557c16,16 37,24 58,24l1 0c21,0 42,-8 58,-24l555 -555c16,-16 24,-37 24,-58 0,-21 -8,-42 -24,-58z"/>
 </g>
</svg>
