<?xml version="1.0" encoding="iso-8859-1"?>
<!-- Generator: Adobe Illustrator 19.0.0, SVG Export Plug-In . SVG Version: 6.00 Build 0)  -->
<svg version="1.1" id="Capa_1" xmlns="http://www.w3.org/2000/svg" xmlns:xlink="http://www.w3.org/1999/xlink" x="0px" y="0px"
	 viewBox="0 0 480.046 480.046" style="enable-background:new 0 0 480.046 480.046;" xml:space="preserve">
<path style="fill:#1895AA;" d="M255.246,208.492l24.8-64.48l-72,64l16,24L255.246,208.492z"/>
<path style="fill:#F9F6ED;" d="M80.046,64.012h80c-0.055-22.091-18.008-39.955-40.099-39.9c-4.833,0.012-9.624,0.9-14.141,2.62
	C85.2,3.669,49.799,1.677,26.736,22.283C14.852,32.9,8.055,48.077,8.046,64.012H80.046z"/>
<g>
	<circle style="fill:#1895AA;" cx="304.046" cy="104.012" r="40"/>
	<path style="fill:#1895AA;" d="M354.686,221.772l-34.64-5.76l8-40h80v-32h-128l-24.8,64.48
		c-6.347,16.494,1.879,35.01,18.373,41.357c2.756,1.061,5.646,1.735,8.587,2.003l45.84,4.16v48h40v-66.48
		C368.036,229.722,362.389,223.061,354.686,221.772L354.686,221.772z"/>
</g>
<path style="fill:#EF9F35;" d="M408.046,8.012v64l64-32L408.046,8.012z"/>
<g>
	<circle style="fill:#F7D04F;" cx="104.046" cy="184.012" r="40"/>
	<path style="fill:#F7D04F;" d="M154.686,301.772l-34.64-5.76l8-32h40l56-32l-16-24l-48,24l-48-8h-32l-24.8,64.48
		c-6.347,16.494,1.879,35.01,18.373,41.357c2.756,1.061,5.646,1.735,8.587,2.003l45.84,4.16v48h40v-66.48
		C168.036,309.722,162.389,303.061,154.686,301.772z"/>
</g>
<path style="fill:#EF9F35;" d="M8.046,480.012v-8l104-24v-64h128l72-80h168v176H8.046z"/>
<path style="fill:#1895AA;" d="M264.046,248.012l-24,40l-32,32l24,24l40-40l32-48L264.046,248.012z"/>
<path style="fill:#F7D04F;" d="M64.046,328.012l-24,40l-32,32l24,24l40-40l32-48L64.046,328.012z"/>
<g>
	<path style="fill:#3C3C48;" d="M120.046,16.012c-4.051,0.025-8.084,0.562-12,1.6C82.379-6.689,41.871-5.58,17.571,20.088
		C6.336,31.955,0.066,47.67,0.046,64.012c0,4.418,3.582,8,8,8h152c4.418,0,8-3.582,8-8
		C168.046,37.502,146.556,16.012,120.046,16.012z M16.686,56.012c4.411-26.14,29.177-43.755,55.317-39.344
		c10.74,1.812,20.544,7.223,27.803,15.344c2.204,2.472,5.702,3.331,8.8,2.16c16.507-6.312,35.006,1.953,41.318,18.461
		c0.423,1.106,0.784,2.234,1.082,3.379H16.686z"/>
	<path style="fill:#3C3C48;" d="M120.046,88.012h16v16h-16V88.012z"/>
	<path style="fill:#3C3C48;" d="M152.046,88.012h16v16h-16V88.012z"/>
	<path style="fill:#3C3C48;" d="M184.046,88.012h16v16h-16V88.012z"/>
	<path style="fill:#3C3C48;" d="M416.046,232.012V76.972l59.6-29.84c3.932-2.015,5.487-6.835,3.472-10.768
		c-0.765-1.493-1.979-2.708-3.472-3.472l-64-32c-3.946-1.988-8.756-0.401-10.744,3.544c-0.559,1.109-0.852,2.334-0.856,3.576v128
		h-60.32c17.715-19.721,16.089-50.07-3.633-67.785s-50.07-16.089-67.785,3.633c-17.715,19.721-16.089,50.07,3.633,67.785
		c0.167,0.15,0.336,0.299,0.505,0.447l-68.88,61.2l-44.8,22.72l-22.72-4.16c19.834-17.589,21.653-47.927,4.064-67.76
		c-17.589-19.834-47.927-21.653-67.761-4.064s-21.653,47.927-4.064,67.76c1.488,1.678,3.092,3.25,4.8,4.704c0,0,0,0.4,0,0.64
		l-25.04,64.48c-4.515,11.711-3.271,24.863,3.36,35.52c1.279,1.985,2.724,3.859,4.32,5.6l-22,36.32l-31.36,31.28
		c-3.137,3.111-3.158,8.177-0.046,11.314c0.015,0.016,0.031,0.031,0.046,0.046l24,24c3.111,3.137,8.177,3.158,11.314,0.046
		c0.016-0.015,0.031-0.031,0.046-0.046l40-40c0.362-0.394,0.684-0.822,0.96-1.28l30.72-46.08l10.64,0.96v32.72h-8
		c-4.418,0-8,3.582-8,8v57.6l-97.76,22.4c-3.721,0.838-6.333,4.187-6.24,8v8h16v-1.6l97.76-22.4c3.721-0.838,6.333-4.187,6.24-8v-56
		h120c2.257-0.005,4.408-0.964,5.92-2.64l69.68-77.36h164.4v-16h-104v-58.48c0.159-11.864-8.374-22.063-20.08-24l-26.48-4.48
		l5.12-25.04h65.44v48H416.046z M416.046,59.052v-38.08l38.08,19.04L416.046,59.052z M304.046,72.012c17.673,0,32,14.327,32,32
		s-14.327,32-32,32s-32-14.327-32-32S286.373,72.012,304.046,72.012z M260.766,171.852l-12.16,31.6l-22.64,17.04l-7.44-11.12
		L260.766,171.852z M268.366,256.012c4.156,1.871,8.586,3.059,13.12,3.52l9.84,0.88l-25.52,38.16l-33.76,34.16l-12.72-12.72
		l26.4-26.32c0.444-0.499,0.846-1.034,1.2-1.6L268.366,256.012z M104.046,152.012c17.673,0,32,14.327,32,32s-14.327,32-32,32
		s-32-14.327-32-32S86.373,152.012,104.046,152.012z M65.806,378.892l-33.76,33.84l-12.72-12.72l26.4-26.32
		c0.444-0.499,0.846-1.034,1.2-1.6l21.44-36.08c4.156,1.871,8.586,3.059,13.12,3.52l9.84,0.88L65.806,378.892z M136.046,376.012v-40
		c0.017-4.152-3.145-7.626-7.28-8l-45.84-4.16c-13.2-1.201-22.928-12.875-21.727-26.076c0.199-2.193,0.7-4.348,1.487-6.404
		l22.88-59.36h25.84l47.36,8c1.67,0.255,3.379-0.025,4.88-0.8l41.68-20.8l7.28,10.96l-46.72,26.64h-37.84
		c-3.766-0.11-7.097,2.423-8,6.08l-8,32c-0.549,2.16-0.172,4.45,1.04,6.32c1.27,1.854,3.229,3.121,5.44,3.52l34.64,5.76
		c3.881,0.669,6.697,4.063,6.64,8v58.32H136.046z M312.046,296.012c-2.257,0.005-4.408,0.964-5.92,2.64l-69.68,77.36h-60.4v-58.48
		c-0.038-11.713-8.525-21.687-20.08-23.6l-26.08-4.4l4.4-17.52h33.76c1.396-0.033,2.765-0.389,4-1.04l56-32h0.56l16.72-12.64
		c0.805,5.447,2.71,10.673,5.6,15.36c1.279,1.985,2.724,3.859,4.32,5.6l-21.76,36.32l-31.36,31.28
		c-3.137,3.111-3.158,8.177-0.046,11.314c0.015,0.016,0.031,0.031,0.046,0.046l24,24c3.111,3.137,8.177,3.158,11.314,0.046
		c0.016-0.015,0.031-0.031,0.046-0.046l40-40c0.362-0.394,0.684-0.822,0.96-1.28l30.72-46.08l10.64,0.96v32.16H312.046z
		 M328.046,168.012c-3.862-0.078-7.228,2.615-8,6.4l-8,40c-0.433,2.142,0.03,4.368,1.28,6.16c1.231,1.791,3.137,3.003,5.28,3.36
		l34.64,5.76c3.881,0.669,6.697,4.063,6.64,8v58.32h-23.84v-40c0.017-4.152-3.145-7.626-7.28-8l-45.84-4.16
		c-13.2-1.201-22.928-12.875-21.727-26.076c0.199-2.193,0.7-4.348,1.487-6.404l22.88-59.36h114.48v16H328.046z"/>
</g>
<g>
</g>
<g>
</g>
<g>
</g>
<g>
</g>
<g>
</g>
<g>
</g>
<g>
</g>
<g>
</g>
<g>
</g>
<g>
</g>
<g>
</g>
<g>
</g>
<g>
</g>
<g>
</g>
<g>
</g>
</svg>
