<?xml version="1.0" encoding="iso-8859-1"?>
<!-- Generator: Adobe Illustrator 19.0.0, SVG Export Plug-In . SVG Version: 6.00 Build 0)  -->
<svg version="1.1" id="Layer_1" xmlns="http://www.w3.org/2000/svg" xmlns:xlink="http://www.w3.org/1999/xlink" x="0px" y="0px"
	 viewBox="0 0 512 512" style="enable-background:new 0 0 512 512;" xml:space="preserve">
<path style="fill:#6DC82A;" d="M256,512C114.839,512,0,397.156,0,256S114.839,0,256,0s256,114.844,256,256S397.161,512,256,512z"/>
<path style="fill:#61B325;" d="M512,256C512,114.844,397.161,0,256,0v512C397.161,512,512,397.156,512,256z"/>
<path style="fill:#FFFFFF;" d="M189.419,404.853c-6.224,0-11.91-3.511-14.693-9.078l-62.258-124.517H89.223
	c-9.072,0-16.428-7.35-16.428-16.428s7.354-16.428,16.428-16.428h33.399c6.224,0,11.91,3.511,14.693,9.078l52.104,104.208
	l107.768-215.537c2.783-5.566,8.469-9.078,14.693-9.078h77.93c9.072,0,16.428,7.35,16.428,16.428s-7.354,16.428-16.428,16.428
	h-67.776L204.112,395.775C201.329,401.342,195.643,404.853,189.419,404.853z"/>
<path style="fill:#FFE6B3;" d="M389.81,127.075h-77.93c-6.224,0-11.91,3.511-14.693,9.078l-40.971,81.942v73.472l65.819-131.637
	h67.776c9.072,0,16.428-7.35,16.428-16.428C406.238,134.425,398.884,127.075,389.81,127.075z"/>
<g>
</g>
<g>
</g>
<g>
</g>
<g>
</g>
<g>
</g>
<g>
</g>
<g>
</g>
<g>
</g>
<g>
</g>
<g>
</g>
<g>
</g>
<g>
</g>
<g>
</g>
<g>
</g>
<g>
</g>
</svg>
