<svg height="512pt" viewBox="-59 0 512 512" width="512pt" xmlns="http://www.w3.org/2000/svg"><path d="m254.601562 66.476562v48.226563c-14.121093 14.121094-22.039062 22.039063-36.160156 36.160156h-42.84375c-14.121094-14.121093-22.039062-22.039062-36.160156-36.160156v-48.226563c0-31.800781 25.78125-57.582031 57.582031-57.582031 31.804688 0 57.582031 25.78125 57.582031 57.582031zm0 0" fill="#ffdaaa"/><path d="m182.59375 361.644531-79.929688 136.378907-22.730468 5.933593-39.359375-23.066406 94.175781-160.519531v-116.25l-86.628906-150.046875 8.191406-30.574219 22.960938-13.253906 81.136718 140.53125h73.210938l81.136718-140.53125 22.960938 13.253906 8.191406 30.574219-86.621094 150.027343v116.269532l94.179688 160.519531-39.359375 23.066406-22.730469-5.933593-79.929687-136.378907zm0 0" fill="#787680"/><g fill="#57565c"><path d="m265.070312 150.777344h-1.445312l73.632812-127.539063-22.5-12.992187-81.136718 140.53125h-64.65625l41.910156 96.105468h12.285156zm0 0"/><path d="m86.316406 23.5.457032-.261719-7.5-12.992187-22.960938 13.253906-8.191406 30.574219 86.628906 150.046875v116.25l-94.175781 160.519531 39.359375 23.066406 20.757812-5.417969-30.113281-17.648437 94.175781-160.519531v-116.25l-86.628906-150.046875zm0 0"/><path d="m241.449219 361.644531h-28.855469l-.570312.976563 79.355468 135.402344 22.730469 5.933593 9.242187-5.417969-1.972656-.515624zm0 0"/></g><path d="m203.160156 246.882812h-12.289062l-41.90625-96.105468h96.101562zm0 0" fill="#fff"/><path d="m185.289062 150.777344h23.457032v23.457031h-23.457032zm0 0" fill="#ff7956"/><path d="m168.964844 150.777344h-20l41.90625 96.105468h12.289062l3.855469-8.84375zm0 0" fill="#d8d7da"/><path d="m190.871094 246.882812h12.289062l9.757813-22.375-5.859375-50.273437h-20.085938l-5.859375 50.273437zm0 0" fill="#ff7956"/><path d="m169.441406 114.703125v-48.226563c0-26.613281 18.050782-49.007812 42.578125-55.609374-4.78125-1.285157-9.808593-1.972657-15-1.972657-31.800781 0-57.582031 25.78125-57.582031 57.582031v48.226563c14.121094 14.121094 22.039062 22.039063 36.160156 36.160156h30.003906c-14.121093-14.121093-22.039062-22.039062-36.160156-36.160156zm0 0" fill="#ffbb85"/><path d="m266.792969 206.113281 87.167969-150.980469-9.800782-36.574218-32.148437-18.558594-49.90625 86.445312v-19.96875c0-35.886718-29.199219-65.082031-65.085938-65.082031s-65.082031 29.195313-65.082031 65.082031v19.984376l-49.917969-86.460938-32.148437 18.558594-9.796875 36.574218 87.175781 150.996094v112.207032l-96.941406 165.230468 48.511718 28.433594 28.746094-7.5 79.324219-135.355469h20.261719l79.324218 135.355469 28.746094 7.5 48.511719-28.433594-96.941406-165.230468zm-106.375-47.832031h11.992187l.082032.082031h5.296874v23.371094h.757813l-1.664063 14.300781zm40.828125 8.453125h-8.457032v-8.371094h8.457032zm-12.445313 56.628906 4.851563-41.628906h6.730468l4.851563 41.628906-6.984375 16.019531h-2.464844zm26.683594-41.628906h.761719v-23.371094h5.304687l.082031-.082031h11.980469l-16.464843 37.753906zm-18.464844-165.339844c27.617188 0 50.082031 22.46875 50.082031 50.082031v45.121094l-31.679687 31.679688h-36.800781l-31.679688-31.679688v-45.121094c0-27.613281 22.464844-50.082031 50.078125-50.082031zm146.179688 461.820313-30.203125 17.703125-16.71875-4.363281-80.53125-137.410157h-37.449219l-80.53125 137.410157-16.722656 4.363281-30.203125-17.703125 91.410156-158.558594v-117.546875l-86.078125-149.09375 6.582031-24.570313 13.773438-7.953124 70.890625 122.785156h-9.90625l48.449219 111.105468h22.109374l48.449219-111.105468h-9.90625l70.890625-122.785156 13.773438 7.953124 6.585937 24.570313-86.074219 149.078125v120.316406zm0 0"/><path d="m0 244.347656h42.714844v15h-42.714844zm0 0"/><path d="m20.269531 334.992188 36.988281-21.355469 7.503907 12.988281-36.992188 21.359375zm0 0"/><path d="m20.269531 168.695312 7.5-12.988281 36.988281 21.355469-7.5 12.992188zm0 0"/><path d="m351.316406 244.347656h42.714844v15h-42.714844zm0 0"/><path d="m329.261719 326.644531 7.5-12.988281 36.988281 21.355469-7.5 12.988281zm0 0"/><path d="m329.257812 177.054688 36.992188-21.355469 7.5 12.988281-36.992188 21.359375zm0 0"/><path d="m213.390625 131.164062-10.605469-10.605468 19.316406-19.316406v-34.765626c0-.304687-.007812-.609374-.019531-.910156l14.992188-.542968c.019531.484374.027343.96875.027343 1.453124v40.976563zm7.253906-73.117187c-1.292969-3.609375-3.445312-6.933594-6.222656-9.613281l10.414063-10.792969c4.429687 4.273437 7.863281 9.578125 9.929687 15.34375zm-12.496093-14.042969c-3.472657-1.730468-7.21875-2.605468-11.128907-2.605468v-15c6.25 0 12.246094 1.402343 17.816407 4.179687zm0 0" fill="#fff"/><path d="m312.777344 475.765625-39.339844-67.054687 12.9375-7.589844 39.339844 67.054687zm-44.402344-75.679687-7.589844-12.9375 12.9375-7.589844 7.59375 12.9375zm-12.652344-21.5625-7.589844-12.941407 12.941407-7.589843 7.589843 12.9375zm0 0" fill="#fff"/></svg>