<?xml version="1.0" encoding="iso-8859-1"?>
<!-- Generator: Adobe Illustrator 18.0.0, SVG Export Plug-In . SVG Version: 6.00 Build 0)  -->
<!DOCTYPE svg PUBLIC "-//W3C//DTD SVG 1.1//EN" "http://www.w3.org/Graphics/SVG/1.1/DTD/svg11.dtd">
<svg version="1.1" id="Capa_1" xmlns="http://www.w3.org/2000/svg" xmlns:xlink="http://www.w3.org/1999/xlink" x="0px" y="0px"
	 viewBox="0 0 240.303 240.303" style="enable-background:new 0 0 240.303 240.303;" xml:space="preserve">
<path d="M181.105,42.571c-0.271-0.164-16.971-6.577-16.971-6.577l-5.004-31.401C158.709,1.947,156.427,0,153.747,0H79.772
	c-2.68,0-4.962,1.947-5.384,4.593l-5.004,31.401c0,0-16.7,6.413-16.973,6.577c-7.947,2.81-13.87,9.098-13.87,17.653v120.051
	c0,8.831,6.964,15.085,14.637,17.839c0.031,0.013,0.061,0.031,0.093,0.044l16.113,6.15l5.004,31.401
	c0.422,2.645,2.704,4.593,5.384,4.593h73.975c2.68,0,4.962-1.947,5.384-4.593l5.004-31.401c0,0,16.172-6.182,16.204-6.194
	c7-2.057,14.637-9.008,14.637-17.839v-33.117h6.785v-20.666h-6.785v-21.575h6.785V84.251h-6.785V60.225
	C194.976,51.669,189.172,46.026,181.105,42.571z M177.392,170.221c0,5.881-4.781,10.662-10.662,10.662H66.788
	c-5.881,0-10.662-4.781-10.662-10.662V70.279c0-5.881,4.781-10.662,10.662-10.662h99.941c5.881,0,10.662,4.781,10.662,10.662
	V170.221z M140.821,129.78c-2.738,8.31-9.229,16.449-16.799,16.449c-2.318,0-4.525-0.592-6.568-1.592
	c-2.037,1-4.248,1.592-6.566,1.592c-10.047,0-18.191-14.33-18.191-24.377c0-17.613,17.33-17.613,24.758-11.111
	c3.779-3.31,10.123-4.927,15.441-3.405c-2.389,2.388-3.869,5.687-3.869,9.333C129.026,123.48,134.192,129.084,140.821,129.78z
	 M106.944,102.324c-3.256-3.256-4.711-7.629-4.385-11.886c4.26-0.328,8.631,1.127,11.887,4.383c3.26,3.26,4.711,7.631,4.385,11.888
	C114.573,107.037,110.2,105.582,106.944,102.324z"/>
<g>
</g>
<g>
</g>
<g>
</g>
<g>
</g>
<g>
</g>
<g>
</g>
<g>
</g>
<g>
</g>
<g>
</g>
<g>
</g>
<g>
</g>
<g>
</g>
<g>
</g>
<g>
</g>
<g>
</g>
</svg>
