<svg width="512" height="512" xmlns="http://www.w3.org/2000/svg">

 <g>
  <title>background</title>
  <rect fill="none" id="canvas_background" height="402" width="582" y="-1" x="-1"/>
 </g>
 <g>
  <title>Layer 1</title>
  <g id="svg_2">
   <path fill="#ffffff" id="svg_3" d="m467,198.699c-37.8,-33.6 -86.4,-32.399 -105.601,-30.599c-26.699,2.999 -45.599,13.2 -59.399,24.3l0,-11.4c0,-8.401 -6.599,-15 -15,-15l-107,0c-8.401,0 -15,6.599 -15,15l0,300c0,8.399 6.599,15 15,15l107,0c8.401,0 15,-6.601 15,-15l0,-171.601c0,-15 19.799,-30 40.8,-30.899c14.7,-0.3 32.401,5.7 34.2,36l0,166.5c0,8.399 6.599,15 15,15l105,0c3.9,0 7.8,-1.5 10.499,-4.501c3.001,-2.699 4.501,-6.599 4.501,-10.499l0,-160.501c-0.3,-54.3 -15.3,-95.1 -45,-121.8z"/>
  </g>
  <g id="svg_4">
   <path fill="#ffffff" id="svg_5" d="m120,166l-105,0c-8.401,0 -15,6.599 -15,15l0,300c0,8.399 6.599,15 15,15l105,0c8.401,0 15,-6.601 15,-15l0,-300c0,-8.401 -6.599,-15 -15,-15z"/>
  </g>
  <g id="svg_6">
   <path fill="#ffffff" id="svg_7" d="m67.5,16c-37.2,0 -67.5,26.999 -67.5,60c0,32.999 30.3,60 67.5,60s67.5,-27.001 67.5,-60c0,-33.001 -30.3,-60 -67.5,-60z"/>
  </g>
 </g>
</svg>