<svg width="24.000000000000004" height="24.000000000000004" xmlns="http://www.w3.org/2000/svg">

 <g>
  <title>background</title>
  <rect fill="none" id="canvas_background" height="3.322735" width="3.322735" y="-1" x="-1"/>
 </g>
 <g>
  <title>Layer 1</title>
  <rect id="svg_2" height="18.288142" width="18.542144" y="2.305591" x="2.813594" fill-opacity="null" stroke-opacity="null" stroke-width="1.5" stroke="#000" fill="#fff"/>
  <path id="svg_1" d="m19,0l-14,0c-2.761,0 -5,2.239 -5,5l0,14c0,2.761 2.239,5 5,5l14,0c2.762,0 5,-2.239 5,-5l0,-14c0,-2.761 -2.238,-5 -5,-5zm-11,19l-3,0l0,-11l3,0l0,11zm-1.5,-12.268c-0.966,0 -1.75,-0.79 -1.75,-1.764s0.784,-1.764 1.75,-1.764s1.75,0.79 1.75,1.764s-0.783,1.764 -1.75,1.764zm13.5,12.268l-3,0l0,-5.604c0,-3.368 -4,-3.113 -4,0l0,5.604l-3,0l0,-11l3,0l0,1.765c1.396,-2.586 7,-2.777 7,2.476l0,6.759z"/>
 </g>
</svg>