<svg xmlns="http://www.w3.org/2000/svg" xmlns:se="http://svg-edit.googlecode.com" xmlns:xlink="http://www.w3.org/1999/xlink" xmlns:dc="http://purl.org/dc/elements/1.1/" xmlns:cc="http://creativecommons.org/ns#" xmlns:rdf="http://www.w3.org/1999/02/22-rdf-syntax-ns#" xmlns:inkscape="http://www.inkscape.org/namespaces/inkscape" width="36.07207489013672" height="36.43243408203125" style="">                                    <title>my vector image</title>                                    <!-- Created with Vector Paint - http://www.vectorpaint.yaks.com/ https://chrome.google.com/webstore/detail/hnbpdiengicdefcjecjbnjnoifekhgdo -->                                    <rect id="backgroundrect" width="100%" height="100%" x="0" y="0" fill="#FFFFFF" stroke="none" class="" style=""/>                                <g class="currentLayer" style=""><title>Layer 1</title><path fill="#242424" stroke="#222222" stroke-width="2" stroke-linejoin="round" stroke-dashoffset="" fill-rule="nonzero" marker-start="" marker-mid="" marker-end="" id="svg_24" d="M8.395067684108362,26.138693592492345 C9.154047389042397,23.6535968634062 10.192881931720187,21.548977625671984 11.178282220235179,20.500067845891817 C12.233980026924357,19.376328205905704 11.765603063194492,18.888885889105396 10.676564773724879,19.977926508828084 C10.218392764512826,20.43609541103597 10.087486920024208,20.103414515155386 10.087486920024208,18.480855486605833 C10.087486920024208,14.60955884147923 12.094292235733183,12.214113158255355 16.922772912881122,10.321850650661624 C21.008383700645265,8.720708200432044 24.0205222887965,6.920120175031925 25.269419815938807,5.3324069726830965 L26.287116633902468,4.0386101312654805 L26.287116633902468,6.2896888753292215 C26.287116633902468,9.073181488310798 25.423539640540056,13.278364546855963 24.467638024404728,15.149629144913973 C23.453597373355006,17.134714172665547 19.977848742304758,20.79888783582822 18.27224260481718,21.68088936269361 C16.744170673799125,22.471090573705162 13.480698767537358,22.703721281457828 11.736526166602854,22.14677839299983 C10.867333263576587,21.86923438945384 10.591478693435741,22.08129207046294 10.141108371175832,23.373224709502487 C9.84162425914221,24.232325286904622 9.596590391567473,25.45452976624631 9.596590391567473,26.089224652137652 C9.596590391567473,26.80977926230525 9.307594748163403,27.243212529209597 8.827162609055499,27.243212529209597 C8.25655356366436,27.243212529209597 8.14490182273705,26.95781168939119 8.395068460859372,26.138693592492345 L8.395067684108362,26.138693592492345 z" style="color: rgb(0, 0, 0);" class="selected"/><path fill="#242424" stroke="#222222" stroke-width="2" stroke-linejoin="round" stroke-dashoffset="" fill-rule="nonzero" marker-start="" marker-mid="" marker-end="" id="svg_27" d="M13.64205639034207,19.62812370529715 C13.717954331187823,19.379614129462666 13.821837744876113,19.169152287900964 13.920377735235391,19.064261350896004 C14.025947474666111,18.95188743079349 13.979109796589096,18.903143218154185 13.870206010182713,19.01204723758576 C13.824388827158856,19.05786410990936 13.811298247823505,19.02459603331664 13.811298247823505,18.86234019384292 C13.811298247823505,18.475210680552834 14.011978701003546,18.235666205802588 14.494826580105745,18.046440028959736 C14.903387499287927,17.886325846481412 15.204601240441342,17.706267114276912 15.329490944370502,17.5474958560621 L15.431260586413078,17.41811622245929 L15.431260586413078,17.643224008932876 C15.431260586413078,17.92157316150078 15.344902920810313,18.342091303090285 15.249312796536703,18.529217689799808 C15.147908771042708,18.727726115032574 14.800334043709164,19.09414333821698 14.629773496585674,19.182343456450333 C14.476966363174192,19.261363546684223 14.15061930002744,19.284626608372363 13.976202108065756,19.228932341282153 C13.889282851715986,19.201177951769125 13.861697405477479,19.22238371158653 13.816660390844085,19.351576925024347 C13.786711991339324,19.437486949205912 13.762208614153487,19.559707349397698 13.762208614153487,19.62317681319408 C13.762208614153487,19.695232246064165 13.733309061101984,19.738575555823573 13.685265865958073,19.738575555823573 C13.628204983708383,19.738575555823573 13.617039813977051,19.710035482990236 13.642056468017131,19.62812370529715 L13.64205639034207,19.62812370529715 z" style="color: rgb(0, 0, 0);"/></g></svg>