<?xml version="1.0" encoding="UTF-8" standalone="no"?>
<svg
   xmlns:dc="http://purl.org/dc/elements/1.1/"
   xmlns:cc="http://creativecommons.org/ns#"
   xmlns:rdf="http://www.w3.org/1999/02/22-rdf-syntax-ns#"
   xmlns:svg="http://www.w3.org/2000/svg"
   xmlns="http://www.w3.org/2000/svg"
   height="32.049999"
   width="139"
   version="1.1"
   id="svg10"
   viewBox="0 0 139 32.049999"
   preserveAspectRatio="xMinYMin meet">
  <g
     transform="translate(0,0.075)"
     id="g12">
    <path
       style="fill:#000000"
       id="path14"
       d="m 42.8,21 c -0.4,0.1 -0.9,0.2 -1.4,0.2 -1,0 -1.4,-0.6 -1.4,-1.6 l 0,-4.5 2.8,0 c 0.7,0 1.4,-0.5 1.4,-1.3 0,-0.8 -0.6,-1.3 -1.4,-1.3 L 40,12.5 40,11 C 40,10.1 39.3,9.5 38.5,9.5 37.7,9.5 37,10.2 37,11 l 0,8.7 c 0,2.5 1.2,4.3 4,4.3 0.8,0 1.9,-0.1 2.7,-0.5 0.7,-0.3 0.9,-0.8 0.9,-1.3 0,-0.7 -0.7,-1.4 -1.8,-1.2 z m 10,-8.9 C 52.4,12 51.6,11.9 50.9,11.9 48.4,11.9 47,13.4 47,15.7 l 0,6.8 c 0,0.8 0.7,1.5 1.5,1.5 0.8,0 1.5,-0.7 1.5,-1.5 l 0,-6.2 c 0,-1 0.4,-1.4 1.1,-1.4 0.7,0 1.1,0.2 1.7,0.2 0.9,0 1.4,-0.8 1.4,-1.4 -0.1,-0.8 -0.5,-1.3 -1.4,-1.6 z m 8.3,-0.2 c -2.8,0 -4.8,1.8 -5.1,4.7 0,0.7 -0.1,1.9 0,2.8 0.2,2.8 2.2,4.7 5.2,4.7 1.4,0 2.7,-0.3 3.5,-0.8 0.6,-0.4 0.7,-0.8 0.7,-1.2 0,-0.8 -0.7,-1.6 -1.9,-1.2 -0.7,0.3 -1.5,0.5 -2.3,0.5 -1.4,0 -2.5,-0.7 -2.5,-2.1 l 0,-0.3 5.7,0 c 1,0 1.5,-0.6 1.5,-1.5 l 0,-0.5 C 66,13.9 64,11.9 61.1,11.9 Z M 63,17 58.8,17 c 0,-1.5 0.7,-2.5 2.3,-2.5 1.4,0 2.2,0.9 2.1,2.2 0,0.2 0,0.3 -0.2,0.3 z m 10.1,-5.1 c -2.8,0 -4.8,1.8 -5.1,4.7 0,0.7 -0.1,1.9 0,2.8 0.2,2.8 2.2,4.7 5.2,4.7 1.4,0 2.7,-0.3 3.5,-0.8 0.6,-0.4 0.7,-0.8 0.7,-1.2 0,-0.8 -0.7,-1.6 -1.9,-1.2 -0.7,0.3 -1.5,0.5 -2.3,0.5 -1.4,0 -2.5,-0.7 -2.5,-2.1 l 0,-0.3 5.7,0 c 1,0 1.5,-0.6 1.5,-1.5 l 0,-0.5 C 78,13.9 76,11.9 73.1,11.9 Z M 75,17 70.8,17 c 0,-1.5 0.7,-2.5 2.3,-2.5 1.4,0 2.2,0.9 2.1,2.2 0,0.2 0,0.3 -0.2,0.3 z m 48.6,-0.1 -1.6,-0.4 c -1,-0.2 -1.3,-0.5 -1.3,-1 0,-0.5 0.5,-0.9 1.6,-0.9 0.6,0 1.3,0.2 1.9,0.5 0.7,0.4 1.5,0.3 1.9,-0.2 0.5,-0.5 0.5,-1.4 -0.1,-2 -0.8,-0.6 -2.2,-1 -3.6,-1 -2.6,0 -4.5,1.3 -4.5,3.7 0,1.9 1.4,2.9 3.2,3.4 0.9,0.2 0.8,0.2 1.6,0.4 0.9,0.2 1.3,0.6 1.3,1 0,0.6 -0.5,1 -1.7,1 -1,0 -1.9,-0.3 -2.6,-0.7 -0.7,-0.5 -1.5,-0.3 -1.9,0.3 -0.4,0.6 -0.3,1.4 0.3,1.8 0.8,0.7 2.1,1.3 4.2,1.3 2.6,0 4.6,-1.4 4.6,-3.8 0,-1.8 -1.1,-2.9 -3.3,-3.4 z m 13.9,2.1 c 1,0 1.5,-0.6 1.5,-1.5 l 0,0 0,-0.5 c 0,-3.1 -2,-5.1 -4.9,-5.1 -2.8,0 -4.8,1.8 -5.1,4.7 0,0.7 -0.1,1.9 0,2.8 0.2,2.8 2.2,4.7 5.2,4.7 1.4,0 2.7,-0.3 3.5,-0.8 0.6,-0.4 0.7,-0.8 0.7,-1.2 0,-0.8 -0.7,-1.6 -1.9,-1.2 -0.7,0.3 -1.5,0.5 -2.3,0.5 -1.4,0 -2.5,-0.7 -2.5,-2.1 l 0,-0.3 5.8,0 z m -3.4,-4.5 c 1.4,0 2.2,0.9 2.1,2.2 0,0.2 -0.1,0.3 -0.2,0.3 l -4.2,0 c 0,-1.5 0.8,-2.5 2.3,-2.5 z M 97.5,11.9 c -3,0 -5.2,1.9 -5.5,4.5 -0.1,0.9 -0.1,2.3 0,3.2 0.2,2.6 2.5,4.5 5.5,4.5 3,0 5.2,-1.9 5.4,-4.5 0.1,-0.9 0.1,-2.2 0,-3.1 -0.2,-2.7 -2.4,-4.6 -5.4,-4.6 z m 2.4,7.2 c -0.1,1.3 -1,2.1 -2.4,2.1 -1.4,0 -2.3,-0.9 -2.4,-2.1 0,-0.6 0,-1.6 0,-2.2 0.1,-1.3 1,-2.1 2.4,-2.1 1.4,0 2.3,0.9 2.4,2.1 0.1,0.6 0.1,1.6 0,2.2 z M 85.6,11.9 c -1.1,0 -2.3,0.4 -2.7,0.9 l 0,0 0,-3.2 c 0,-0.9 -0.6,-1.5 -1.4,-1.5 -0.8,0 -1.4,0.7 -1.4,1.5 l 0,12.9 c 0,0.8 0.7,1.5 1.5,1.5 0.8,0 1.4,-0.7 1.4,-1.5 l 0,-6.7 c 0.5,-0.5 1.3,-0.9 2.3,-0.9 1.2,0 1.9,0.7 1.9,2.1 l 0,5.5 c 0,0.9 0.6,1.6 1.4,1.6 0.9,0 1.5,-0.7 1.5,-1.6 l 0,-5.7 C 90,13.6 88.4,11.9 85.6,11.9 Z m 28,0.1 c -0.8,0 -1.5,0.7 -1.5,1.5 l 0,7.1 c -0.5,0.3 -1.2,0.6 -2.1,0.6 -1.2,0 -2.1,-0.7 -2.1,-2.1 l 0,-5.6 c 0,-0.9 -0.7,-1.6 -1.5,-1.6 -0.9,0 -1.4,0.7 -1.4,1.6 l 0,5.7 c 0,3.1 1.8,4.8 4.9,4.8 2.3,0 3.9,-0.8 4.6,-1.3 0.4,-0.2 0.5,-0.5 0.5,-1 l 0,-8.2 c 0,-0.8 -0.6,-1.5 -1.4,-1.5 z" />
    <path
       style="fill:#000000"
       id="path16"
       d="M 28.4,7 C 28,6.8 27.1,6.4 26.1,5.8 25,5.2 23.3,6.2 22.2,7.9 l -1.9,3.2 c -0.7,1.4 -0.6,2.9 0.3,4.2 l 0.1,0.1 c 0.9,1.3 2.1,2.4 2.4,2.8 0.2,0.2 0.4,0.6 0.5,0.9 0.3,1.2 -0.3,2.3 -1.5,2.6 C 21,22 19.8,21.3 19.4,20.2 19.3,19.9 19.3,19.6 19.3,19.3 19.4,18.8 19.2,18 18.5,17.4 17.8,16.6 16.4,18.1 16,19.5 l 0,0.1 c -0.4,1.5 -0.7,2.7 -0.6,2.8 0,0.1 0.1,0.2 0.1,0.2 0.6,1.2 0.2,2.6 -1,3.2 -1.2,0.6 -2.7,0.2 -3.3,-1 -0.6,-1.2 -0.2,-2.6 1,-3.2 0.1,0 0.1,-0.1 0.2,-0.1 0.1,0 0.3,-0.7 0.6,-1.4 0.2,-0.7 0.4,-1.3 0.4,-1.3 0,-0.1 0,-0.2 0.1,-0.2 l 1.2,-4.2 -1.2,2.5 c -0.2,-0.5 -0.4,-0.5 -1,-0.1 -0.3,0.2 -0.9,0.7 -1.1,0.9 -0.5,0.4 -0.9,1.1 -1.1,1.5 -0.1,0.3 -0.3,0.5 -0.5,0.7 -0.9,0.8 -2.3,0.6 -3,-0.3 -0.7,-0.9 -0.5,-2.1 0.4,-2.8 0.3,-0.2 0.6,-0.4 0.9,-0.4 0.5,-0.1 2.4,-1.3 3.5,-2 0.2,-0.1 0.4,-0.3 0.5,-0.4 l 2.9,-2.1 -2.6,1.4 c 0,0 -0.3,0 -0.6,0 -0.8,0.1 -1.8,0.2 -2,0.5 -0.1,0.1 -0.2,0.3 -0.4,0.4 -0.8,0.4 -2,0.2 -2.7,-0.6 -0.6,-0.9 -0.4,-2 0.4,-2.6 0.5,-0.3 0.9,-0.4 1.3,-0.4 0.7,0 2.5,0.4 4,0.1 l 0.4,-0.1 c 1.5,-0.3 3.3,-1.5 4,-2.9 0,0 0.7,-1.3 1.6,-2.7 0.9,-1.5 0.8,-3.1 -0.1,-3.7 l -1.7,-1 c -0.9,-0.5 -2.3,-0.5 -3.2,0 L 1.6,6.8 C 0.7,7.3 0,8.6 0,9.6 l 0,12.8 c 0,1 0.7,2.1 1.6,2.6 l 11.9,6.6 c 0.9,0.5 2.3,0.5 3.2,0 L 28.4,24.9 C 29.3,24.4 30,23.3 30,22.3 L 30,9.6 C 30,8.6 29.3,7.5 28.4,7 Z" />
  </g>
</svg>
